<svg xmlns="http://www.w3.org/2000/svg" version="1.1" xmlns:xlink="http://www.w3.org/1999/xlink" xmlns:svgjs="http://svgjs.dev/svgjs" width="500" height="500" preserveAspectRatio="none" viewBox="0 0 500 500"><g mask="url(&quot;#SvgjsMask1285&quot;)" fill="none"><path d="M500 0L320.23 0L500 112.92z" fill="rgba(255, 255, 255, .1)"></path><path d="M320.23 0L500 112.92L500 300.5L170.36 0z" fill="rgba(255, 255, 255, .075)"></path><path d="M170.36 0L500 300.5L500 380.15999999999997L168.26000000000002 0z" fill="rgba(255, 255, 255, .05)"></path><path d="M168.26 0L500 380.15999999999997L500 420.34999999999997L148.04999999999998 0z" fill="rgba(255, 255, 255, .025)"></path><path d="M0 500L120.12 500L0 371.8z" fill="rgba(0, 0, 0, .1)"></path><path d="M0 371.8L120.12 500L298.53 500L0 187.55z" fill="rgba(0, 0, 0, .075)"></path><path d="M0 187.55L298.53 500L363.12 500L0 160.56z" fill="rgba(0, 0, 0, .05)"></path><path d="M0 160.56L363.12 500L388.24 500L0 107.43z" fill="rgba(0, 0, 0, .025)"></path></g><defs><mask id="SvgjsMask1285"><rect width="500" height="500" fill="#ffffff"></rect></mask></defs></svg>