<svg xmlns="http://www.w3.org/2000/svg" version="1.1" xmlns:xlink="http://www.w3.org/1999/xlink" xmlns:svgjs="http://svgjs.dev/svgjs" width="200" height="152" preserveAspectRatio="none" viewBox="0 0 200 152"><g mask="url(&quot;#SvgjsMask1013&quot;)" fill="none"><path d="M200 0L194.41 0L200 56.91z" fill="rgba(255, 255, 255, .1)"></path><path d="M194.41 0L200 56.91L200 59.8L120.72 0z" fill="rgba(255, 255, 255, .075)"></path><path d="M120.72 0L200 59.8L200 89.35L74.13 0z" fill="rgba(255, 255, 255, .05)"></path><path d="M74.13 0L200 89.35L200 118.06L41.05 0z" fill="rgba(255, 255, 255, .025)"></path><path d="M0 152L90.68 152L0 77.02z" fill="rgba(0, 0, 0, .1)"></path><path d="M0 77.02L90.68 152L132.31 152L0 58.669999999999995z" fill="rgba(0, 0, 0, .075)"></path><path d="M0 58.66999999999999L132.31 152L158.25 152L0 36.70999999999999z" fill="rgba(0, 0, 0, .05)"></path><path d="M0 36.70999999999998L158.25 152L175.66 152L0 24.59999999999998z" fill="rgba(0, 0, 0, .025)"></path></g><defs><mask id="SvgjsMask1013"><rect width="200" height="152" fill="#ffffff"></rect></mask></defs></svg>